# xmcd
#
# Track frame offsets: 
#        150
#        29102
#        47029
#        65881
#        84658
#        105458
#        127005
#        144625
#        163409
#        181334
#        198851
#        217540
#        237672
#        257749
#        283678
#        302578
#
# Disc length: 4303 seconds
#
# Revision: 0
# Processed by: cddbd v1.5.2PL0 Copyright (c) Steve Scherf et al.
# Submitted via: ExactAudioCopy v0.99pb5
#
DISCID=f310cd10
DTITLE=Various Artist - CD-11
DYEAR=1999
DGENRE=Ballad
TTITLE0=Heal the world - MICHAEL JACKSON
TTITLE1=Wish you were here - REDNEX
TTITLE2=I Should have known better - JIM DIAMOND
TTITLE3=As i lay me down - SOPHIE B. HAWKINS
TTITLE4=Here i go again - WHITESNAKE
TTITLE5=Is this love - WHITESNAKE
TTITLE6=She's like the wind - PATRICK SWAYZE
TTITLE7=Hungry eyes - ERIC CARMEN
TTITLE8=St. Elmos's fire (Man in motion) - JOHN PARR
TTITLE9=Oh Sherrie - STEVE PERRY
TTITLE10=Go away - STEVE PERRY
TTITLE11=She's mine - STEVE PERRY
TTITLE12=Track13 - MR. MISTER
TTITLE13=Broken wings - MR. MISTER
TTITLE14=Take my breath away - BERLIN
TTITLE15=Turn back the clock - JONNY HATES JAZZ
EXTD=
EXTT0=
EXTT1=
EXTT2=
EXTT3=
EXTT4=
EXTT5=
EXTT6=
EXTT7=
EXTT8=
EXTT9=
EXTT10=
EXTT11=
EXTT12=
EXTT13=
EXTT14=
EXTT15=
PLAYORDER=
